<?xml version="1.0" encoding="UTF-8"?>
<svg version="1.1" xmlns="http://www.w3.org/2000/svg" width="816" height="667">
<path d="M0 0 C269.28 0 538.56 0 816 0 C816 220.11 816 440.22 816 667 C546.72 667 277.44 667 0 667 C0 446.89 0 226.78 0 0 Z " fill="#0D0D0F" transform="translate(0,0)"/>
<path d="M0 0 C1.3726983 -0.01732812 2.74605848 -0.00157369 4.1182251 0.04037476 C4.86983414 0.0394986 5.62144318 0.03862244 6.39582825 0.03771973 C8.87499708 0.04189312 11.35144447 0.08852662 13.83013916 0.1355896 C15.55076621 0.14678279 17.27141241 0.1553224 18.99206543 0.16131592 C23.51681485 0.18420499 28.04040523 0.2431278 32.56469727 0.30953979 C37.18296631 0.3709613 41.80142299 0.39833058 46.41998291 0.42855835 C55.4790854 0.49287184 64.53732833 0.59525152 73.59576416 0.7215271 C73.89975106 18.44548754 74.12883338 36.16876964 74.2693224 53.89477539 C74.33629554 62.12583669 74.42755536 70.35527644 74.57647705 78.58529663 C74.70625235 85.76064361 74.78996506 92.93481635 74.81891459 100.11130428 C74.83583434 103.91029721 74.87543211 107.70593182 74.9702549 111.50384521 C75.05890419 115.08369445 75.08564753 118.65882528 75.06616402 122.23966789 C75.07141454 124.17104938 75.14119217 126.10192232 75.21322632 128.03196716 C75.15709679 131.68712419 74.96557236 134.32637093 73.59576416 137.7215271 C69.6115703 141.27867982 65.40921095 143.39614911 60.59576416 145.7215271 C58.51355067 146.95027741 56.44123925 148.19616201 54.38482666 149.46762085 C52.33057991 150.69882529 50.27588631 151.92928443 48.22076416 153.1590271 C47.13803223 153.80790894 46.05530029 154.45679077 44.9397583 155.12533569 C40.27024356 157.92362773 35.59927956 160.71949322 30.92779541 163.51449585 C29.62960274 164.29181358 28.3314244 165.06915522 27.03326416 165.8465271 C26.44472656 166.19828003 25.85618896 166.55003296 25.24981689 166.91244507 C22.06250427 168.82231598 18.91269679 170.78096827 15.78326416 172.7840271 C12.59576416 174.7215271 12.59576416 174.7215271 10.59576416 174.7215271 C10.26576416 146.0115271 9.93576416 117.3015271 9.59576416 87.7215271 C4.64576416 94.6515271 4.64576416 94.6515271 -0.40423584 101.7215271 C-2.5265497 104.66105376 -4.65076839 107.59898251 -6.77923584 110.5340271 C-11.02710004 116.40252195 -15.23672402 122.29571694 -19.40423584 128.2215271 C-24.11407946 134.91848211 -28.88695748 141.56739879 -33.68719482 148.19979858 C-40.08394353 157.038157 -46.42909822 165.91156564 -52.71038818 174.83236694 C-58.994165 183.75594109 -65.35956708 192.61748026 -71.76312256 201.45541382 C-74.48071753 205.20797504 -77.1922107 208.9649396 -79.90423584 212.7215271 C-83.18812127 217.26932196 -86.47268632 221.81662089 -89.75970459 226.3621521 C-94.65768918 233.13693452 -99.55167672 239.91410812 -104.40423584 246.7215271 C-111.51056186 256.69064597 -118.69761483 266.60176062 -125.87689209 276.5184021 C-131.44478501 284.21305275 -136.99459045 291.91443751 -142.40423584 299.7215271 C-133.26970132 294.55580808 -124.23548242 289.25511989 -115.27923584 283.7840271 C-114.07592473 283.0513762 -112.87247072 282.31895997 -111.66888428 281.58676147 C-106.65956699 278.53846175 -101.65344875 275.48493331 -96.64935303 272.42807007 C-92.98574679 270.19020133 -89.32076916 267.95459695 -85.65423584 265.7215271 C-85.06265686 265.36115356 -84.47107788 265.00078003 -83.86157227 264.62948608 C-76.57055956 260.19272359 -69.2370245 255.86339097 -61.7633667 251.74105835 C-57.48814516 249.37068362 -53.34198749 246.84322249 -49.21673584 244.2215271 C-41.74098645 239.47520051 -34.11435743 234.99574865 -26.46673584 230.5340271 C-17.24448342 225.15276134 -8.04886732 219.73425866 1.09576416 214.2215271 C13.63750631 206.66760181 26.26609982 199.26603626 38.90631104 191.87875366 C44.97308229 188.33252513 51.03401204 184.77632536 57.09576416 181.2215271 C59.49414275 179.8151766 61.89258392 178.40893291 64.29107666 177.0027771 C64.88633148 176.65379364 65.4815863 176.30481018 66.09487915 175.94525146 C69.85989372 173.738222 73.62591693 171.53292279 77.39257812 169.32870483 C94.46928659 159.33814296 94.46928659 159.33814296 111.45513916 149.19418335 C118.01641637 145.25775769 124.63422987 141.41592542 131.2381897 137.55169678 C140.31230023 132.24146105 149.36840524 126.90238512 158.40826416 121.5340271 C168.69155265 115.42948636 179.00694108 109.38268168 189.34185791 103.36605835 C201.11003297 96.5134396 212.85084398 89.61389761 224.59576416 82.7215271 C225.42124756 82.237323 226.24673096 81.7531189 227.097229 81.25424194 C235.84921739 76.11982099 244.58260651 70.95432981 253.31085205 65.77966309 C257.34651427 63.38723189 261.38278491 60.99582718 265.41900635 58.6043396 C267.43041684 57.41220943 269.44152304 56.21956559 271.45220947 55.0262146 C273.87386547 53.58928715 276.29704807 52.15497599 278.72076416 50.7215271 C279.76780518 50.09890991 279.76780518 50.09890991 280.83599854 49.4637146 C285.48141757 46.7215271 285.48141757 46.7215271 286.59576416 46.7215271 C286.96819507 54.76204448 287.25155126 62.79890992 287.42475891 70.84594536 C287.50794616 74.58395758 287.62045485 78.31603527 287.80279541 82.05062866 C288.94623676 106.09406383 288.94623676 106.09406383 285.11468506 112.00726318 C281.45800116 115.52797421 277.27954128 117.41793105 272.51934814 119.04403687 C270.09054131 119.89946763 268.02912137 121.12777044 265.86138916 122.50668335 C264.52402128 123.26786395 263.18547109 124.02697089 261.84576416 124.7840271 C253.88802464 129.33726125 246.0450583 134.06898711 238.22076416 138.8465271 C228.29808503 144.90346635 218.32179894 150.85855267 208.28326416 156.7215271 C207.66237915 157.08416656 207.04149414 157.44680603 206.40179443 157.82043457 C205.17748744 158.53541811 203.95317324 159.25038931 202.72885132 159.96534729 C196.31937204 163.70832713 189.93957991 167.49314978 183.58404541 171.32699585 C177.55602643 174.95593027 171.49466965 178.52908481 165.44024658 182.1137085 C163.67305103 183.16002363 161.90587977 184.20637973 160.13873291 185.2527771 C159.53511932 185.61019485 158.93150574 185.96761261 158.30960083 186.33586121 C153.64894112 189.09623213 148.99096341 191.86109902 144.33404541 194.6277771 C143.29574333 195.24463127 143.29574333 195.24463127 142.23646545 195.87394714 C140.84091777 196.70306695 139.44537434 197.53219393 138.04983521 198.36132812 C126.58097211 205.17510583 115.10624561 211.97818782 103.59576416 218.7215271 C109.34690954 225.68145181 115.73759686 231.91971715 122.16412354 238.25082397 C125.88810324 241.94102608 129.57045011 245.61080672 132.97467041 249.60043335 C137.84996352 255.28720381 143.26901546 260.4629452 148.59576416 265.7215271 C154.50574807 271.5558805 160.37662481 277.35227542 165.77154541 283.6746521 C169.82848771 288.22676722 174.25486104 292.44172248 178.59576416 296.7215271 C184.20844182 302.25520595 189.75197552 307.78465217 194.87945557 313.77816772 C198.174634 317.50926592 201.74465337 320.97330432 205.28326416 324.4715271 C206.40184814 325.58334351 206.40184814 325.58334351 207.54302979 326.71762085 C208.92491199 328.09087399 210.30782979 329.46308654 211.69219971 330.83383179 C212.32037598 331.45677124 212.94855225 332.07971069 213.59576416 332.7215271 C214.70528442 333.76808472 214.70528442 333.76808472 215.83721924 334.83578491 C217.59576416 336.7215271 217.59576416 336.7215271 217.59576416 338.7215271 C218.58576416 339.0515271 219.57576416 339.3815271 220.59576416 339.7215271 C222.12115479 341.27035522 222.12115479 341.27035522 223.75201416 343.2527771 C227.63403066 347.82801084 231.81716659 352.01946974 236.09576416 356.2215271 C240.15587959 360.20901077 244.18115528 364.17155265 247.87701416 368.5027771 C252.79288001 374.21641775 258.23564104 379.42999788 263.59576416 384.7215271 C275.43520412 396.40945686 275.43520412 396.40945686 280.84771729 402.75521851 C285.26686387 407.72614122 290.15984598 412.2778398 294.91998291 416.91879272 C295.73595947 417.72381226 296.55193604 418.52883179 297.39263916 419.35824585 C298.12837158 420.07713989 298.864104 420.79603394 299.62213135 421.53671265 C301.66028198 423.79294842 303.0696002 426.10138675 304.59576416 428.7215271 C292.22604533 429.11736021 279.85785804 429.41842815 267.48307037 429.60233402 C261.73497648 429.69065713 255.99124762 429.81018112 250.2456665 430.0039978 C244.68850203 430.19026124 239.13550195 430.29065949 233.57545471 430.33444023 C231.46678611 430.36558668 229.35831773 430.42641795 227.25144958 430.51893806 C209.95098811 431.24766439 209.95098811 431.24766439 202.83575439 425.05230713 C199.31946007 421.53762375 196.21075384 417.7737617 193.21261597 413.81274223 C190.8548179 410.76319683 188.2474287 408.01803776 185.59576416 405.2215271 C184.63968404 404.18528941 183.68507067 403.14769488 182.73248291 402.10824585 C178.98979272 398.05335994 175.19647079 394.04633099 171.40826416 390.0340271 C166.53378383 384.8693114 161.71485496 379.66876668 156.99029541 374.36605835 C153.77766252 370.81801191 150.49957381 367.33336036 147.22076416 363.8465271 C141.86357352 358.14945026 136.54566208 352.42148942 131.27154541 346.64730835 C127.8828672 342.94202371 124.47515904 339.25456244 121.06671143 335.56747437 C117.81390038 332.04677861 114.57686062 328.51218968 111.34576416 324.9715271 C106.14684776 319.28267049 100.86018184 313.67775265 95.57159424 308.07235718 C91.05116647 303.27786677 86.56414688 298.45495029 82.1038208 293.60458374 C77.49716627 288.60065666 72.84135392 283.6434713 68.18389893 278.68685913 C63.60467204 273.80935937 59.05570678 268.90515812 54.53912354 263.96957397 C51.63261108 260.80377552 48.65301092 257.74014439 45.59576416 254.7215271 C42.30738604 255.97100279 39.30270869 257.3675323 36.27935791 259.16293335 C35.44783203 259.65503296 34.61630615 260.14713257 33.75958252 260.65414429 C32.85989746 261.19200562 31.9602124 261.72986694 31.03326416 262.2840271 C30.0736377 262.85411499 29.11401123 263.42420288 28.12530518 264.01156616 C19.80856472 268.96565548 11.54212821 274.00227162 3.27734375 279.04232788 C-7.2020887 285.4297639 -17.76336632 291.66960597 -28.37322998 297.83773804 C-34.9741356 301.68222673 -41.50832781 305.61500313 -48.00408936 309.6343689 C-54.34471135 313.52651921 -60.75291408 317.30535478 -67.15423584 321.0965271 C-68.58363663 321.94419929 -70.01299827 322.79193749 -71.44232178 323.63973999 C-79.14289032 328.20569969 -86.85217419 332.75641963 -94.574646 337.2852478 C-103.86400721 342.74164335 -113.08471667 348.31409482 -122.31390381 353.87142944 C-131.07429212 359.14631722 -139.85940856 364.37929497 -148.65423584 369.5965271 C-149.54033539 370.12217758 -149.54033539 370.12217758 -150.44433594 370.65844727 C-157.55051845 374.87164257 -164.67594541 379.04780801 -171.84173584 383.1590271 C-180.3528416 388.04517128 -188.72331276 393.15585575 -197.09838867 398.26983643 C-205.75221911 403.55012739 -214.47379157 408.68897746 -223.29730225 413.68173218 C-228.89764412 416.85151908 -234.44027063 420.10023838 -239.94647217 423.43051147 C-245.20582308 426.61128638 -250.49977065 429.7307805 -255.80560303 432.83334351 C-260.37486942 435.51080956 -264.91983272 438.22766185 -269.45892334 440.9559021 C-274.67203441 444.08901265 -279.89510457 447.20442572 -285.13079834 450.2996521 C-304.55777628 461.78633352 -304.55777628 461.78633352 -323.77191162 473.62484741 C-328.8912053 476.83493668 -334.09395592 479.83815274 -339.40423584 482.7215271 C-337.87678812 478.27346507 -335.46771781 474.65775719 -332.77923584 470.8465271 C-332.30123535 470.16018188 -331.82323486 469.47383667 -331.33074951 468.76669312 C-330.26892099 467.24287957 -329.20492249 465.7205765 -328.13909912 464.19955444 C-326.31392115 461.59252427 -324.49688698 458.97997023 -322.68157959 456.36605835 C-319.9861916 452.4853856 -317.28828614 448.6064871 -314.58782959 444.7293396 C-311.82815338 440.76709057 -309.07025632 436.80361594 -306.31439209 432.8387146 C-298.27182558 421.26836612 -290.20869269 409.71274148 -282.12200928 398.17318726 C-279.21461494 394.02366282 -276.30955583 389.87250404 -273.40423584 385.7215271 C-272.23758009 384.05485279 -271.07091343 382.38818612 -269.90423584 380.7215271 C-269.03798584 379.4840271 -269.03798584 379.4840271 -268.15423584 378.2215271 C-262.90423584 370.7215271 -262.90423584 370.7215271 -261.15472412 368.22225952 C-259.98638617 366.55318202 -258.818092 364.88407388 -257.64984131 363.2149353 C-254.75910095 359.08490372 -251.8676373 354.95538264 -248.97454834 350.82699585 C-242.76862496 341.96945066 -236.57744578 333.10190822 -230.40423584 324.2215271 C-220.63038775 310.1626566 -210.821109 296.12931452 -200.93792725 282.14706421 C-197.12095681 276.74420493 -193.32171431 271.32910217 -189.52923584 265.9090271 C-188.94690186 265.07677612 -188.36456787 264.24452515 -187.7645874 263.38705444 C-184.76014874 259.0920465 -181.75747307 254.79581078 -178.75579834 250.49887085 C-173.60807411 243.13317398 -168.45872939 235.77054541 -163.21673584 228.4715271 C-159.28295621 222.99319105 -155.45218549 217.44914515 -151.64300537 211.88363647 C-148.33123854 207.05180913 -144.97575202 202.25299803 -141.59173584 197.4715271 C-137.2643518 191.35686744 -132.95013767 185.23335703 -128.65423584 179.0965271 C-128.07512451 178.26943237 -127.49601318 177.44233765 -126.89935303 176.59017944 C-123.72851419 172.05731726 -120.56722246 167.51801863 -117.41595459 162.9715271 C-110.7426495 153.34664489 -104.026154 143.76522364 -97.13323975 134.29623413 C-92.66060486 128.12952456 -88.35727861 121.85502452 -84.07415771 115.55575562 C-79.67570573 109.09369212 -75.16778174 102.71877053 -70.59710693 96.3777771 C-59.80817191 81.39780673 -49.19498839 66.29311943 -38.6161499 51.16439819 C-34.89210119 45.84066868 -31.15477027 40.52662541 -27.40423584 35.2215271 C-22.89066208 28.83518669 -18.39204343 22.43850251 -13.90423584 16.0340271 C-13.31642334 15.19613647 -12.72861084 14.35824585 -12.12298584 13.4949646 C-11.56611084 12.69961304 -11.00923584 11.90426147 -10.43548584 11.08480835 C-9.70168701 10.03740479 -9.70168701 10.03740479 -8.95306396 8.96884155 C-7.28478029 6.64409975 -7.28478029 6.64409975 -5.77758789 3.62364197 C-3.40423584 0.7215271 -3.40423584 0.7215271 0 0 Z " fill="#FDFDFD" transform="translate(395.40423583984375,89.27847290039063)"/>
</svg>
